<svg xmlns="http://www.w3.org/2000/svg" viewBox="0 0 1200 630" width="1200" height="630">
  <defs>
    <linearGradient id="bg" x1="0" y1="0" x2="1200" y2="630" gradientUnits="userSpaceOnUse">
      <stop stop-color="#0a0c12"/>
      <stop offset="1" stop-color="#06070b"/>
    </linearGradient>
    <linearGradient id="mark" x1="80" y1="80" x2="180" y2="180" gradientUnits="userSpaceOnUse">
      <stop stop-color="#818cf8"/>
      <stop offset="1" stop-color="#22d3ee"/>
    </linearGradient>
    <linearGradient id="accent" x1="80" y1="0" x2="900" y2="0" gradientUnits="userSpaceOnUse">
      <stop stop-color="#818cf8"/>
      <stop offset="1" stop-color="#22d3ee"/>
    </linearGradient>
    <radialGradient id="glow" cx="50%" cy="0%" r="70%">
      <stop stop-color="#6366f1" stop-opacity="0.22"/>
      <stop offset="1" stop-color="#6366f1" stop-opacity="0"/>
    </radialGradient>
  </defs>
  <rect width="1200" height="630" fill="url(#bg)"/>
  <rect width="1200" height="630" fill="url(#glow)"/>
  <g>
    <rect x="80" y="80" width="64" height="64" rx="16" fill="url(#mark)"/>
    <path d="M104 104l22 12-9.2 3.2 5.5 9.7-4.4 2.5-5.5-9.7-7 6.9z" fill="#fff"/>
    <text x="164" y="126" font-family="system-ui, sans-serif" font-size="38" font-weight="700" fill="#ffffff">Mousey</text>
  </g>
  <text x="80" y="300" font-family="system-ui, sans-serif" font-size="74" font-weight="700" fill="#ffffff">Turn any live website into</text>
  <text x="80" y="386" font-family="system-ui, sans-serif" font-size="74" font-weight="700" fill="url(#accent)">an AI-ready design prompt</text>
  <text x="80" y="462" font-family="system-ui, sans-serif" font-size="30" fill="#9aa3b2">Extract a site's design language. Hand it to Claude, v0, Lovable, or Bolt.</text>
  <text x="80" y="504" font-family="system-ui, sans-serif" font-size="30" fill="#9aa3b2">Build a near-match. Runs on local models. No cloud API keys.</text>
  <g font-family="system-ui, sans-serif" font-size="22" fill="#e6e8ef">
    <rect x="80" y="540" width="190" height="48" rx="12" fill="#171b27" stroke="#2a3142"/>
    <text x="104" y="570">Chrome extension</text>
    <rect x="286" y="540" width="150" height="48" rx="12" fill="#171b27" stroke="#2a3142"/>
    <text x="310" y="570">Local models</text>
    <rect x="452" y="540" width="150" height="48" rx="12" fill="#171b27" stroke="#2a3142"/>
    <text x="476" y="570">Free + Pro</text>
  </g>
</svg>
